<?xml version="1.0" encoding="iso-8859-1"?>
<!-- Uploaded to: SVG Repo, www.svgrepo.com, Generator: SVG Repo Mixer Tools -->
<svg version="1.1" id="Layer_1" xmlns="http://www.w3.org/2000/svg" xmlns:xlink="http://www.w3.org/1999/xlink" 
	 viewBox="0 0 390.206 390.206" xml:space="preserve">
<path style="fill:#FFFFFF;" d="M357.689,85.301H32.517c-5.947,0-10.861,4.848-10.861,10.861v128.97
	c0,5.947,4.848,10.861,10.861,10.861h325.172c5.948,0,10.861-4.848,10.861-10.861V96.162
	C368.549,90.214,363.636,85.301,357.689,85.301z"/>
<rect x="70.465" y="217.568" style="fill:#56ACE0;" width="249.859" height="18.424"/>
<path style="fill:#194F82;" d="M357.689,63.644H32.517C14.61,63.644,0,78.255,0,96.162v128.97c0,17.907,14.61,32.517,32.517,32.517
	h325.172c17.907,0,32.517-14.61,32.517-32.517V96.162C390.206,78.255,375.596,63.644,357.689,63.644z M319.741,235.992H70.465
	v-18.424h249.859v18.424H319.741z M368.549,225.131c0,5.947-4.849,10.861-10.861,10.861h-16.291v-29.285
	c0-5.947-4.848-10.861-10.861-10.861H59.604c-5.947,0-10.861,4.848-10.861,10.861v29.285H32.517
	c-5.947,0-10.861-4.848-10.861-10.861V96.162c0-5.947,4.848-10.861,10.861-10.861h325.172c5.948,0,10.861,4.848,10.861,10.861
	V225.131z"/>
<path style="fill:#FFC10D;" d="M346.828,214.271V106.958H43.378v107.313h5.43v-7.564c0-5.947,4.848-10.861,10.861-10.861h271.515
	c5.947,0,10.861,4.848,10.861,10.861v7.564H346.828z"/>
<g>
	<path style="fill:#194F82;" d="M200.533,154.667h-10.279c-5.947,0-10.861,4.848-10.861,10.861c0,5.947,4.848,10.861,10.861,10.861
		h10.279c5.947,0,10.861-4.848,10.861-10.861C211.394,159.58,206.481,154.667,200.533,154.667z"/>
	<path style="fill:#194F82;" d="M100.784,279.887c-5.947,0-10.861,4.848-10.861,10.861v24.954c0,5.947,4.848,10.861,10.861,10.861
		s10.861-4.848,10.861-10.861v-24.954C111.644,284.735,106.731,279.887,100.784,279.887z"/>
	<path style="fill:#194F82;" d="M163.685,279.887c-5.947,0-10.861,4.848-10.861,10.861v24.954c0,5.947,4.848,10.861,10.861,10.861
		s10.861-4.848,10.861-10.861v-24.954C174.481,284.735,169.632,279.887,163.685,279.887z"/>
	<path style="fill:#194F82;" d="M226.521,279.887c-5.947,0-10.861,4.848-10.861,10.861v24.954c0,5.947,4.848,10.861,10.861,10.861
		c5.947,0,10.861-4.848,10.861-10.861v-24.954C237.382,284.735,232.469,279.887,226.521,279.887z"/>
	<path style="fill:#194F82;" d="M289.422,279.887c-5.947,0-10.861,4.848-10.861,10.861v24.954c0,5.947,4.848,10.861,10.861,10.861
		c5.947,0,10.861-4.848,10.861-10.861v-24.954C300.218,284.735,295.37,279.887,289.422,279.887z"/>
</g>
</svg>