<?xml version="1.0" encoding="iso-8859-1"?>
<!-- Uploaded to: SVG Repo, www.svgrepo.com, Generator: SVG Repo Mixer Tools -->
<svg height="800px" width="800px" version="1.1" id="Layer_1" xmlns="http://www.w3.org/2000/svg" xmlns:xlink="http://www.w3.org/1999/xlink" 
	 viewBox="0 0 511.999 511.999" xml:space="preserve">
<path style="fill:#D7DEED;" d="M37.736,94.711l-27.362,75.175c-6.02,16.538,2.587,34.995,19.125,41.015l344.176,125.125
	c16.539,6.02,34.995-2.587,41.015-19.125l24.625-67.658L37.736,94.711z"/>
<path style="fill:#EFF2FA;" d="M136.821,173.342l231.41,84.082c16.539,6.019,43.121,4.858,59.072-2.58l65.041-30.328
	c15.951-7.438,15.47-18.449-1.068-24.469L86.959,53.032c-16.539-6.02-34.996,2.587-41.015,19.126L35,102.228
	c-6.02,16.538,2.587,34.994,19.125,41.015l7.52,2.737L136.821,173.342z"/>
<path style="fill:#AFB9D2;" d="M414.69,316.9l22.563,8.213c4.146,1.508,8.73-0.629,10.239-4.775l21.897-60.162
	c1.509-4.146-0.629-8.729-4.774-10.238l-15.046-5.477l-10.254,4.781L414.69,316.9z"/>
<path style="fill:#C3CCE0;" d="M24,460.9H8v-128h16c8.836,0,16,7.164,16,16v96C40,453.737,32.836,460.9,24,460.9z"/>
<path style="fill:#D7DEED;" d="M163.391,296.848l-26.747,73.482c-2.301,6.32-8.371,10.57-15.102,10.57H40v32h81.543
	c20.137,0,38.289-12.711,45.172-31.633l26.337-72.355L163.391,296.848z"/>
<path style="fill:#AFB9D2;" d="M229,283.111c-8.283,21.681-31.087,30.509-50.681,23.377c-19.544-7.113-31.316-28.447-24.319-50.377
	L229,283.111z"/>
<g>
	<path style="fill:#2D2B29;" d="M511.985,211.4c-0.204-4.679-2.811-13.353-17.976-18.872L89.696,45.515
		c-10.007-3.642-20.863-3.156-30.569,1.371c-9.706,4.525-17.058,12.529-20.699,22.536L27.482,99.491c0,0-0.001,0.003-0.002,0.005
		L2.857,167.149c-7.543,20.727,3.181,43.725,23.91,51.27l117.836,42.839c-2.239,13.621,1.496,27.078,9.626,37.373l-25.102,68.963
		c-1.155,3.174-4.203,5.307-7.584,5.307H48v-24c0-13.233-10.766-24-24-24H8c-4.418,0-8,3.582-8,8v128c0,4.418,3.582,8,8,8h16
		c13.234,0,24-10.767,24-24v-24h73.543c23.488,0,44.662-14.828,52.689-36.896l24.574-67.514c14.063-1.975,26.843-10.186,34.43-23.01
		l137.703,50.063c4.501,1.638,9.107,2.415,13.641,2.415c13.75-0.001,26.817-7.149,34.134-19.079l15.802,5.751
		c1.785,0.649,3.635,0.973,5.48,0.973c2.303,0,4.598-0.504,6.747-1.506c3.871-1.805,6.807-5.01,8.267-9.022l21.897-60.162
		c2.663-7.317-0.376-15.336-6.829-19.188l25.646-11.959C510.349,224.946,512.189,216.079,511.985,211.4z M32,444.9
		c0,4.411-3.589,8-8,8h-8v-112h8c4.411,0,8,3.589,8,8V444.9z M159.197,378.533c-5.737,15.771-20.869,26.367-37.654,26.367H48v-16
		h73.543c10.082,0,19.171-6.363,22.619-15.834l22.965-63.094c2.635,1.584,5.458,2.942,8.456,4.033
		c2.128,0.774,4.274,1.388,6.426,1.854L159.197,378.533z M193.104,300.918c-0.185-0.002-0.369-0.002-0.552,0.01
		c-3.81,0.052-7.697-0.574-11.496-1.957c-4.447-1.619-8.325-4.109-11.502-7.213c-0.292-0.354-0.614-0.682-0.967-0.983
		c-5.958-6.346-9.148-14.961-8.544-23.903l57.758,20.998C211.956,295.895,202.808,300.619,193.104,300.918z M461.873,257.439
		l-21.883,60.155l-15.045-5.476l20.756-57.027l4.25-1.981L461.873,257.439z M488.963,217.265l-42.768,19.942
		c-0.004,0.002-0.008,0.004-0.011,0.006l-10.243,4.776c-0.004,0.002-0.007,0.003-0.011,0.005l-12.008,5.6
		c-14.092,6.571-38.343,7.629-52.958,2.31l-231.41-84.081c-4.151-1.507-8.742,0.635-10.251,4.787
		c-1.509,4.153,0.634,8.742,4.787,10.252l231.405,84.079c8.052,2.931,17.977,4.358,28.105,4.358c11.073,0,22.379-1.715,31.735-5.035
		l-18.162,49.9c-4.526,12.436-18.326,18.87-30.764,14.343L32.236,203.383c-12.436-4.526-18.87-18.325-14.344-30.761l13.688-37.608
		c4.565,7.019,11.354,12.67,19.81,15.747l7.52,2.736c4.148,1.512,8.742-0.63,10.253-4.782c1.511-4.151-0.63-8.742-4.782-10.253
		l-7.519-2.736c-12.434-4.526-18.869-18.322-14.346-30.757l2.738-7.522v-0.001l8.208-22.551c2.18-5.991,6.593-10.788,12.426-13.509
		c5.833-2.72,12.345-3.017,18.337-0.835l404.313,147.014c5.136,1.869,7.036,3.817,7.422,4.535
		C495.639,212.849,493.917,214.954,488.963,217.265z"/>
	<path style="fill:#2D2B29;" d="M109.485,154.879l-15.037-5.474c-4.151-1.513-8.742,0.63-10.254,4.781
		c-1.511,4.151,0.629,8.742,4.781,10.254l15.037,5.474c0.903,0.329,1.827,0.484,2.736,0.484c3.268,0,6.335-2.018,7.518-5.266
		C115.778,160.981,113.637,156.391,109.485,154.879z"/>
</g>
</svg>